<?xml version="1.0" encoding="iso-8859-1"?>
<!-- Generator: Adobe Illustrator 19.0.0, SVG Export Plug-In . SVG Version: 6.00 Build 0)  -->
<svg version="1.1" id="Layer_1" xmlns="http://www.w3.org/2000/svg" xmlns:xlink="http://www.w3.org/1999/xlink" x="0px" y="0px"
	 viewBox="0 0 512 512" style="enable-background:new 0 0 512 512;" xml:space="preserve">
<g>
	<g>
		<g>
			<path d="M196.267,409.6h51.2c4.719,0,8.533-3.823,8.533-8.533s-3.814-8.533-8.533-8.533h-51.2c-4.719,0-8.533,3.823-8.533,8.533
				S191.548,409.6,196.267,409.6z"/>
			<path d="M196.267,477.867h70.263c4.719,0,8.533-3.823,8.533-8.533s-3.814-8.533-8.533-8.533h-70.263
				c-4.719,0-8.533,3.823-8.533,8.533S191.548,477.867,196.267,477.867z"/>
			<path d="M119.287,375.492c2.193,0,4.386-0.836,6.05-2.517c3.328-3.345,3.311-8.747-0.026-12.066
				C57.532,293.504,17.067,216.004,17.067,153.6c0-75.281,61.252-136.533,136.533-136.533c25.643,0,50.645,7.151,72.294,20.685
				c3.994,2.5,9.267,1.28,11.759-2.714c2.5-3.994,1.28-9.259-2.714-11.759C210.577,8.047,182.451,0,153.6,0
				C68.907,0,0,68.907,0,153.6c0,66.85,42.342,148.872,113.271,219.409C114.944,374.665,117.12,375.492,119.287,375.492z"/>
			<path d="M222.652,101.641c4.284,1.937,9.344,0.034,11.29-4.258C256.017,48.589,304.87,17.067,358.4,17.067
				c75.281,0,136.533,61.252,136.533,136.533c0,38.391-13.764,82.867-34.253,110.669c-2.799,3.797-1.988,9.139,1.809,11.938
				c1.519,1.118,3.294,1.655,5.052,1.655c2.62,0,5.205-1.195,6.878-3.465C496.896,243.891,512,195.345,512,153.6
				C512,68.907,443.093,0,358.4,0c-60.22,0-115.174,35.465-140.006,90.351C216.448,94.643,218.359,99.703,222.652,101.641z"/>
			<path d="M128,494.933H8.533c-4.719,0-8.533,3.823-8.533,8.533S3.814,512,8.533,512H128c4.719,0,8.533-3.823,8.533-8.533
				S132.719,494.933,128,494.933z"/>
			<path d="M386.321,55.049c-4.506-1.263-9.259,1.348-10.53,5.888c-1.28,4.54,1.348,9.259,5.888,10.539
				c28.279,7.996,50.833,30.541,58.837,58.82c1.058,3.755,4.48,6.212,8.201,6.212c0.777,0,1.562-0.111,2.33-0.333
				c4.54-1.28,7.168-5.999,5.888-10.53C447.326,91.708,420.267,64.657,386.321,55.049z"/>
			<path d="M196.267,443.733h55.467c4.719,0,8.533-3.823,8.533-8.533s-3.814-8.533-8.533-8.533h-55.467
				c-4.719,0-8.533,3.823-8.533,8.533S191.548,443.733,196.267,443.733z"/>
			<path d="M128,460.8H8.533C3.814,460.8,0,464.623,0,469.333s3.814,8.533,8.533,8.533H128c4.719,0,8.533-3.823,8.533-8.533
				S132.719,460.8,128,460.8z"/>
			<path d="M392.533,349.867c9.412,0,17.067,7.654,17.067,17.067c0,4.71,3.814,8.533,8.533,8.533s8.533-3.823,8.533-8.533
				c0-15.855-10.914-29.107-25.6-32.922V332.8c0-4.71-3.814-8.533-8.533-8.533c-4.719,0-8.533,3.823-8.533,8.533v1.212
				c-14.686,3.814-25.6,17.067-25.6,32.922c0,18.825,15.309,34.133,34.133,34.133c9.412,0,17.067,7.654,17.067,17.067
				s-7.654,17.067-17.067,17.067c-9.412,0-17.067-7.654-17.067-17.067c0-4.71-3.814-8.533-8.533-8.533s-8.533,3.823-8.533,8.533
				c0,15.855,10.914,29.107,25.6,32.922v1.212c0,4.71,3.814,8.533,8.533,8.533c4.719,0,8.533-3.823,8.533-8.533v-1.212
				c14.686-3.814,25.6-17.067,25.6-32.922c0-18.825-15.309-34.133-34.133-34.133c-9.412,0-17.067-7.654-17.067-17.067
				S383.121,349.867,392.533,349.867z"/>
			<path d="M392.533,273.067c-65.877,0-119.467,53.589-119.467,119.467S326.656,512,392.533,512S512,458.411,512,392.533
				S458.411,273.067,392.533,273.067z M392.533,494.933c-56.465,0-102.4-45.935-102.4-102.4c0-56.465,45.935-102.4,102.4-102.4
				c56.465,0,102.4,45.935,102.4,102.4C494.933,448.998,448.998,494.933,392.533,494.933z"/>
			<path d="M298.667,494.933h-102.4c-4.719,0-8.533,3.823-8.533,8.533s3.814,8.533,8.533,8.533h102.4
				c4.719,0,8.533-3.823,8.533-8.533S303.386,494.933,298.667,494.933z"/>
			<path d="M162.133,392.533c-4.719,0-8.533,3.823-8.533,8.533v102.4c0,4.71,3.814,8.533,8.533,8.533s8.533-3.823,8.533-8.533
				v-102.4C170.667,396.356,166.852,392.533,162.133,392.533z"/>
			<path d="M128,392.533H8.533c-4.719,0-8.533,3.823-8.533,8.533s3.814,8.533,8.533,8.533H128c4.719,0,8.533-3.823,8.533-8.533
				S132.719,392.533,128,392.533z"/>
			<path d="M128,426.667H8.533C3.814,426.667,0,430.49,0,435.2s3.814,8.533,8.533,8.533H128c4.719,0,8.533-3.823,8.533-8.533
				S132.719,426.667,128,426.667z"/>
		</g>
	</g>
</g>
<g>
</g>
<g>
</g>
<g>
</g>
<g>
</g>
<g>
</g>
<g>
</g>
<g>
</g>
<g>
</g>
<g>
</g>
<g>
</g>
<g>
</g>
<g>
</g>
<g>
</g>
<g>
</g>
<g>
</g>
</svg>
